<mxfile host="app.diagrams.net" agent="Mozilla/5.0 (Windows NT 10.0; Win64; x64) AppleWebKit/537.36 (KHTML, like Gecko) Chrome/128.0.0.0 Safari/537.36" version="24.7.14">
  <diagram name="第 1 页" id="Js2gKHvIyTyq0PtMAdm4">
    <mxGraphModel dx="4118" dy="2120" grid="1" gridSize="10" guides="1" tooltips="1" connect="1" arrows="1" fold="1" page="1" pageScale="1" pageWidth="1654" pageHeight="1169" background="#F2F2F2" math="0" shadow="0">
      <root>
        <mxCell id="0" />
        <mxCell id="1" parent="0" />
        <mxCell id="wa8FjlfhGtUEHZc12TWI-9" value="" style="rounded=1;whiteSpace=wrap;html=1;shadow=1;strokeWidth=2;strokeColor=#FFFFFF;arcSize=10;movable=0;resizable=0;rotatable=0;deletable=0;editable=0;locked=1;connectable=0;" parent="1" vertex="1">
          <mxGeometry x="740" y="40" width="880" height="1100" as="geometry" />
        </mxCell>
        <mxCell id="wa8FjlfhGtUEHZc12TWI-1" value="&lt;font size=&quot;1&quot; face=&quot;Comic Sans MS&quot; style=&quot;&quot;&gt;&lt;b style=&quot;font-size: 30px;&quot;&gt;APPLICATION&lt;/b&gt;&lt;/font&gt;" style="rounded=1;whiteSpace=wrap;html=1;shadow=1;strokeWidth=2;strokeColor=#FFFFFF;" parent="1" vertex="1">
          <mxGeometry x="40" y="40" width="360" height="270" as="geometry" />
        </mxCell>
        <mxCell id="wa8FjlfhGtUEHZc12TWI-2" value="&lt;font face=&quot;Comic Sans MS&quot; style=&quot;font-size: 30px;&quot;&gt;&lt;b&gt;V8&lt;/b&gt;&lt;/font&gt;&lt;div style=&quot;font-size: 30px;&quot;&gt;&lt;font face=&quot;Comic Sans MS&quot; style=&quot;font-size: 30px;&quot;&gt;&lt;b&gt;（JAVASCRIPT ENGINE）&lt;/b&gt;&lt;/font&gt;&lt;/div&gt;" style="rounded=1;whiteSpace=wrap;html=1;shadow=1;strokeWidth=2;strokeColor=#FFFFFF;arcSize=10;" parent="1" vertex="1">
          <mxGeometry x="40" y="540" width="360" height="600" as="geometry" />
        </mxCell>
        <mxCell id="wa8FjlfhGtUEHZc12TWI-3" value="" style="rounded=1;whiteSpace=wrap;html=1;shadow=1;strokeWidth=2;strokeColor=#FFFFFF;arcSize=10;movable=0;resizable=0;rotatable=0;deletable=0;editable=0;locked=1;connectable=0;" parent="1" vertex="1">
          <mxGeometry x="440" y="40" width="260" height="1100" as="geometry" />
        </mxCell>
        <mxCell id="wa8FjlfhGtUEHZc12TWI-4" value="&lt;b&gt;&lt;font color=&quot;#a3a3a3&quot; face=&quot;Comic Sans MS&quot; style=&quot;font-size: 28px;&quot;&gt;JAVASCRIPT&lt;/font&gt;&lt;/b&gt;" style="text;html=1;align=center;verticalAlign=middle;whiteSpace=wrap;rounded=0;" parent="1" vertex="1">
          <mxGeometry x="189.33" y="420" width="60" height="30" as="geometry" />
        </mxCell>
        <mxCell id="wa8FjlfhGtUEHZc12TWI-5" value="" style="shape=flexArrow;endArrow=classic;html=1;rounded=0;fillColor=#d5e8d4;strokeColor=#82b366;" parent="1" edge="1">
          <mxGeometry width="50" height="50" relative="1" as="geometry">
            <mxPoint x="100" y="520" as="sourcePoint" />
            <mxPoint x="99" y="330" as="targetPoint" />
          </mxGeometry>
        </mxCell>
        <mxCell id="wa8FjlfhGtUEHZc12TWI-6" value="" style="shape=flexArrow;endArrow=classic;html=1;rounded=0;fillColor=#d5e8d4;strokeColor=#82b366;" parent="1" edge="1">
          <mxGeometry width="50" height="50" relative="1" as="geometry">
            <mxPoint x="340" y="340" as="sourcePoint" />
            <mxPoint x="340" y="520" as="targetPoint" />
          </mxGeometry>
        </mxCell>
        <mxCell id="wa8FjlfhGtUEHZc12TWI-7" value="" style="shape=flexArrow;endArrow=classic;html=1;rounded=0;fillColor=#d5e8d4;strokeColor=#82b366;entryX=0.002;entryY=0.709;entryDx=0;entryDy=0;entryPerimeter=0;" parent="1" edge="1">
          <mxGeometry width="50" height="50" relative="1" as="geometry">
            <mxPoint x="398.24" y="980.1" as="sourcePoint" />
            <mxPoint x="740" y="980.0000000000001" as="targetPoint" />
          </mxGeometry>
        </mxCell>
        <mxCell id="wa8FjlfhGtUEHZc12TWI-8" value="" style="shape=flexArrow;endArrow=classic;html=1;rounded=0;fillColor=#d5e8d4;strokeColor=#82b366;entryX=1.002;entryY=0.345;entryDx=0;entryDy=0;entryPerimeter=0;exitX=-0.002;exitY=0.643;exitDx=0;exitDy=0;exitPerimeter=0;" parent="1" source="wa8FjlfhGtUEHZc12TWI-9" target="wa8FjlfhGtUEHZc12TWI-2" edge="1">
          <mxGeometry width="50" height="50" relative="1" as="geometry">
            <mxPoint x="670" y="520" as="sourcePoint" />
            <mxPoint x="400" y="520" as="targetPoint" />
          </mxGeometry>
        </mxCell>
        <mxCell id="wa8FjlfhGtUEHZc12TWI-14" value="OS&#xa;OPENATION" style="fontStyle=1;align=center;verticalAlign=middle;childLayout=stackLayout;horizontal=1;horizontalStack=0;resizeParent=1;resizeParentMax=0;resizeLast=0;marginBottom=0;dashed=1;fontFamily=Comic Sans MS;fontSize=30;" parent="1" vertex="1">
          <mxGeometry x="460" y="770" width="220" height="190" as="geometry" />
        </mxCell>
        <mxCell id="wa8FjlfhGtUEHZc12TWI-27" value="&lt;font face=&quot;Comic Sans MS&quot; style=&quot;font-size: 30px;&quot;&gt;&lt;b&gt;NODE.JS&lt;/b&gt;&lt;/font&gt;&lt;div style=&quot;font-size: 30px;&quot;&gt;&lt;font face=&quot;Comic Sans MS&quot; style=&quot;font-size: 30px;&quot;&gt;&lt;b&gt;BINDINGS&lt;/b&gt;&lt;/font&gt;&lt;/div&gt;&lt;div style=&quot;font-size: 30px;&quot;&gt;&lt;font face=&quot;Comic Sans MS&quot; style=&quot;font-size: 30px;&quot;&gt;&lt;b&gt;(NODE API)&lt;/b&gt;&lt;/font&gt;&lt;/div&gt;" style="text;html=1;align=center;verticalAlign=middle;whiteSpace=wrap;rounded=0;" parent="1" vertex="1">
          <mxGeometry x="467.5" y="290" width="205" height="160" as="geometry" />
        </mxCell>
        <mxCell id="wa8FjlfhGtUEHZc12TWI-36" value="" style="group;movable=0;resizable=0;rotatable=0;deletable=0;editable=0;locked=1;connectable=0;" parent="1" vertex="1" connectable="0">
          <mxGeometry x="760" y="530" width="222.5" height="470" as="geometry" />
        </mxCell>
        <mxCell id="wa8FjlfhGtUEHZc12TWI-33" value="" style="group" parent="wa8FjlfhGtUEHZc12TWI-36" vertex="1" connectable="0">
          <mxGeometry width="222.5" height="331.7647058823529" as="geometry" />
        </mxCell>
        <mxCell id="wa8FjlfhGtUEHZc12TWI-28" value="" style="fontStyle=1;align=center;verticalAlign=middle;childLayout=stackLayout;horizontal=1;horizontalStack=0;resizeParent=1;resizeParentMax=0;resizeLast=0;marginBottom=0;dashed=1;fontFamily=Comic Sans MS;fontSize=30;" parent="wa8FjlfhGtUEHZc12TWI-33" vertex="1">
          <mxGeometry y="276.4705882352941" width="222.5" height="55.294117647058826" as="geometry" />
        </mxCell>
        <mxCell id="wa8FjlfhGtUEHZc12TWI-29" value="" style="fontStyle=1;align=center;verticalAlign=middle;childLayout=stackLayout;horizontal=1;horizontalStack=0;resizeParent=1;resizeParentMax=0;resizeLast=0;marginBottom=0;dashed=1;fontFamily=Comic Sans MS;fontSize=30;" parent="wa8FjlfhGtUEHZc12TWI-33" vertex="1">
          <mxGeometry y="207.35294117647058" width="222.5" height="55.294117647058826" as="geometry" />
        </mxCell>
        <mxCell id="wa8FjlfhGtUEHZc12TWI-30" value="" style="fontStyle=1;align=center;verticalAlign=middle;childLayout=stackLayout;horizontal=1;horizontalStack=0;resizeParent=1;resizeParentMax=0;resizeLast=0;marginBottom=0;dashed=1;fontFamily=Comic Sans MS;fontSize=30;" parent="wa8FjlfhGtUEHZc12TWI-33" vertex="1">
          <mxGeometry y="138.23529411764704" width="222.5" height="55.294117647058826" as="geometry" />
        </mxCell>
        <mxCell id="wa8FjlfhGtUEHZc12TWI-31" value="" style="fontStyle=1;align=center;verticalAlign=middle;childLayout=stackLayout;horizontal=1;horizontalStack=0;resizeParent=1;resizeParentMax=0;resizeLast=0;marginBottom=0;dashed=1;fontFamily=Comic Sans MS;fontSize=30;" parent="wa8FjlfhGtUEHZc12TWI-33" vertex="1">
          <mxGeometry width="222.5" height="55.294117647058826" as="geometry" />
        </mxCell>
        <mxCell id="wa8FjlfhGtUEHZc12TWI-32" value="" style="fontStyle=1;align=center;verticalAlign=middle;childLayout=stackLayout;horizontal=1;horizontalStack=0;resizeParent=1;resizeParentMax=0;resizeLast=0;marginBottom=0;dashed=1;fontFamily=Comic Sans MS;fontSize=30;" parent="wa8FjlfhGtUEHZc12TWI-33" vertex="1">
          <mxGeometry y="69.11764705882352" width="222.5" height="55.294117647058826" as="geometry" />
        </mxCell>
        <mxCell id="wa8FjlfhGtUEHZc12TWI-34" value="" style="fontStyle=1;align=center;verticalAlign=middle;childLayout=stackLayout;horizontal=1;horizontalStack=0;resizeParent=1;resizeParentMax=0;resizeLast=0;marginBottom=0;dashed=1;fontFamily=Comic Sans MS;fontSize=30;" parent="wa8FjlfhGtUEHZc12TWI-36" vertex="1">
          <mxGeometry y="345.5882352941176" width="222.5" height="55.294117647058826" as="geometry" />
        </mxCell>
        <mxCell id="wa8FjlfhGtUEHZc12TWI-35" value="" style="fontStyle=1;align=center;verticalAlign=middle;childLayout=stackLayout;horizontal=1;horizontalStack=0;resizeParent=1;resizeParentMax=0;resizeLast=0;marginBottom=0;dashed=1;fontFamily=Comic Sans MS;fontSize=30;" parent="wa8FjlfhGtUEHZc12TWI-36" vertex="1">
          <mxGeometry y="414.70588235294116" width="222.5" height="55.294117647058826" as="geometry" />
        </mxCell>
        <mxCell id="wa8FjlfhGtUEHZc12TWI-37" value="" style="group" parent="1" vertex="1" connectable="0">
          <mxGeometry x="1380" y="520" width="220" height="480" as="geometry" />
        </mxCell>
        <mxCell id="wa8FjlfhGtUEHZc12TWI-38" value="" style="group" parent="wa8FjlfhGtUEHZc12TWI-37" vertex="1" connectable="0">
          <mxGeometry width="220.00000000000003" height="338.8235294117647" as="geometry" />
        </mxCell>
        <mxCell id="wa8FjlfhGtUEHZc12TWI-39" value="" style="fontStyle=1;align=center;verticalAlign=middle;childLayout=stackLayout;horizontal=1;horizontalStack=0;resizeParent=1;resizeParentMax=0;resizeLast=0;marginBottom=0;dashed=1;fontFamily=Comic Sans MS;fontSize=30;" parent="wa8FjlfhGtUEHZc12TWI-38" vertex="1">
          <mxGeometry y="282.3529411764706" width="220.00000000000003" height="56.470588235294116" as="geometry" />
        </mxCell>
        <mxCell id="wa8FjlfhGtUEHZc12TWI-40" value="" style="fontStyle=1;align=center;verticalAlign=middle;childLayout=stackLayout;horizontal=1;horizontalStack=0;resizeParent=1;resizeParentMax=0;resizeLast=0;marginBottom=0;dashed=1;fontFamily=Comic Sans MS;fontSize=30;" parent="wa8FjlfhGtUEHZc12TWI-38" vertex="1">
          <mxGeometry y="211.76470588235296" width="220.00000000000003" height="56.470588235294116" as="geometry" />
        </mxCell>
        <mxCell id="wa8FjlfhGtUEHZc12TWI-41" value="PROCESS" style="fontStyle=1;align=center;verticalAlign=middle;childLayout=stackLayout;horizontal=1;horizontalStack=0;resizeParent=1;resizeParentMax=0;resizeLast=0;marginBottom=0;dashed=1;fontFamily=Comic Sans MS;fontSize=18;" parent="wa8FjlfhGtUEHZc12TWI-38" vertex="1">
          <mxGeometry y="141.1764705882353" width="220.00000000000003" height="56.470588235294116" as="geometry" />
        </mxCell>
        <mxCell id="wa8FjlfhGtUEHZc12TWI-42" value="FILE SYSTEM" style="fontStyle=1;align=center;verticalAlign=middle;childLayout=stackLayout;horizontal=1;horizontalStack=0;resizeParent=1;resizeParentMax=0;resizeLast=0;marginBottom=0;dashed=1;fontFamily=Comic Sans MS;fontSize=18;" parent="wa8FjlfhGtUEHZc12TWI-38" vertex="1">
          <mxGeometry width="220.00000000000003" height="56.470588235294116" as="geometry" />
        </mxCell>
        <mxCell id="wa8FjlfhGtUEHZc12TWI-43" value="NETWORK" style="fontStyle=1;align=center;verticalAlign=middle;childLayout=stackLayout;horizontal=1;horizontalStack=0;resizeParent=1;resizeParentMax=0;resizeLast=0;marginBottom=0;dashed=1;fontFamily=Comic Sans MS;fontSize=18;" parent="wa8FjlfhGtUEHZc12TWI-38" vertex="1">
          <mxGeometry y="70.58823529411765" width="220.00000000000003" height="56.470588235294116" as="geometry" />
        </mxCell>
        <mxCell id="wa8FjlfhGtUEHZc12TWI-44" value="" style="fontStyle=1;align=center;verticalAlign=middle;childLayout=stackLayout;horizontal=1;horizontalStack=0;resizeParent=1;resizeParentMax=0;resizeLast=0;marginBottom=0;dashed=1;fontFamily=Comic Sans MS;fontSize=30;" parent="wa8FjlfhGtUEHZc12TWI-37" vertex="1">
          <mxGeometry y="352.94117647058823" width="220.00000000000003" height="56.470588235294116" as="geometry" />
        </mxCell>
        <mxCell id="wa8FjlfhGtUEHZc12TWI-45" value="" style="fontStyle=1;align=center;verticalAlign=middle;childLayout=stackLayout;horizontal=1;horizontalStack=0;resizeParent=1;resizeParentMax=0;resizeLast=0;marginBottom=0;dashed=1;fontFamily=Comic Sans MS;fontSize=30;" parent="wa8FjlfhGtUEHZc12TWI-37" vertex="1">
          <mxGeometry y="423.5294117647059" width="220.00000000000003" height="56.470588235294116" as="geometry" />
        </mxCell>
        <mxCell id="wa8FjlfhGtUEHZc12TWI-47" value="" style="shape=flexArrow;endArrow=classic;html=1;rounded=0;fillColor=#d5e8d4;strokeColor=#82b366;exitX=-0.002;exitY=0.643;exitDx=0;exitDy=0;exitPerimeter=0;" parent="1" edge="1">
          <mxGeometry width="50" height="50" relative="1" as="geometry">
            <mxPoint x="930" y="700" as="sourcePoint" />
            <mxPoint x="1040" y="700" as="targetPoint" />
          </mxGeometry>
        </mxCell>
        <mxCell id="wa8FjlfhGtUEHZc12TWI-48" value="" style="shape=flexArrow;endArrow=classic;html=1;rounded=0;fillColor=#d5e8d4;strokeColor=#82b366;exitX=-0.002;exitY=0.643;exitDx=0;exitDy=0;exitPerimeter=0;" parent="1" edge="1">
          <mxGeometry width="50" height="50" relative="1" as="geometry">
            <mxPoint x="1040" y="900" as="sourcePoint" />
            <mxPoint x="930" y="900" as="targetPoint" />
          </mxGeometry>
        </mxCell>
        <mxCell id="wa8FjlfhGtUEHZc12TWI-49" value="&lt;font face=&quot;Comic Sans MS&quot; style=&quot;font-size: 32px;&quot;&gt;&lt;b&gt;LIBUV&lt;/b&gt;&lt;/font&gt;&lt;div style=&quot;font-size: 32px;&quot;&gt;&lt;font face=&quot;Comic Sans MS&quot; style=&quot;font-size: 32px;&quot;&gt;&lt;b style=&quot;&quot;&gt;(ASYNCHRONOUS L/O)&lt;/b&gt;&lt;/font&gt;&lt;/div&gt;" style="text;html=1;align=center;verticalAlign=middle;whiteSpace=wrap;rounded=0;movable=0;resizable=0;rotatable=0;deletable=0;editable=0;locked=1;connectable=0;" parent="1" vertex="1">
          <mxGeometry x="885" y="50" width="565" height="400" as="geometry" />
        </mxCell>
        <mxCell id="wa8FjlfhGtUEHZc12TWI-68" value="" style="group" parent="1" vertex="1" connectable="0">
          <mxGeometry x="1050" y="730" width="230" height="140" as="geometry" />
        </mxCell>
        <mxCell id="wa8FjlfhGtUEHZc12TWI-66" value="" style="html=1;align=left;spacingLeft=2;endArrow=block;rounded=0;edgeStyle=orthogonalEdgeStyle;curved=0;rounded=0;strokeWidth=3;fillColor=#d5e8d4;strokeColor=#82b366;" parent="wa8FjlfhGtUEHZc12TWI-68" edge="1">
          <mxGeometry relative="1" as="geometry">
            <mxPoint x="102.67857142857143" as="sourcePoint" />
            <Array as="points">
              <mxPoint />
              <mxPoint y="140" />
              <mxPoint x="230" y="140" />
              <mxPoint x="230" />
            </Array>
            <mxPoint x="110.89285714285714" as="targetPoint" />
            <mxPoint as="offset" />
          </mxGeometry>
        </mxCell>
        <mxCell id="wa8FjlfhGtUEHZc12TWI-67" value="&lt;font face=&quot;Comic Sans MS&quot; style=&quot;font-size: 30px;&quot;&gt;EVENT&lt;/font&gt;&lt;div style=&quot;font-size: 30px;&quot;&gt;&lt;font face=&quot;Comic Sans MS&quot; style=&quot;font-size: 30px;&quot;&gt;LOOP&lt;/font&gt;&lt;/div&gt;" style="text;align=center;fontStyle=1;verticalAlign=middle;spacingLeft=3;spacingRight=3;strokeColor=none;rotatable=0;points=[[0,0.5],[1,0.5]];portConstraint=eastwest;html=1;" parent="wa8FjlfhGtUEHZc12TWI-68" vertex="1">
          <mxGeometry x="86.25" y="58.625" width="65.71428571428571" height="22.75" as="geometry" />
        </mxCell>
        <mxCell id="wa8FjlfhGtUEHZc12TWI-69" value="" style="shape=flexArrow;endArrow=classic;html=1;rounded=0;fillColor=#d5e8d4;strokeColor=#82b366;exitX=-0.002;exitY=0.643;exitDx=0;exitDy=0;exitPerimeter=0;" parent="1" edge="1">
          <mxGeometry width="50" height="50" relative="1" as="geometry">
            <mxPoint x="1220" y="700" as="sourcePoint" />
            <mxPoint x="1380" y="700" as="targetPoint" />
          </mxGeometry>
        </mxCell>
        <mxCell id="wa8FjlfhGtUEHZc12TWI-71" value="" style="shape=flexArrow;endArrow=classic;html=1;rounded=0;fillColor=#d5e8d4;strokeColor=#82b366;exitX=-0.002;exitY=0.643;exitDx=0;exitDy=0;exitPerimeter=0;" parent="1" edge="1">
          <mxGeometry width="50" height="50" relative="1" as="geometry">
            <mxPoint x="1380" y="900" as="sourcePoint" />
            <mxPoint x="1220" y="900" as="targetPoint" />
          </mxGeometry>
        </mxCell>
        <mxCell id="wa8FjlfhGtUEHZc12TWI-72" value="&lt;font style=&quot;font-size: 22px;&quot; face=&quot;Comic Sans MS&quot;&gt;&lt;b style=&quot;&quot;&gt;BLOCKING&lt;/b&gt;&lt;/font&gt;&lt;div style=&quot;font-size: 22px;&quot;&gt;&lt;font face=&quot;Comic Sans MS&quot; style=&quot;font-size: 22px;&quot;&gt;&lt;b style=&quot;&quot;&gt;OPERATION&lt;/b&gt;&lt;/font&gt;&lt;/div&gt;" style="text;html=1;align=center;verticalAlign=middle;whiteSpace=wrap;rounded=0;" parent="1" vertex="1">
          <mxGeometry x="1220" y="620" width="120" height="60" as="geometry" />
        </mxCell>
        <mxCell id="wa8FjlfhGtUEHZc12TWI-74" value="&lt;span style=&quot;font-size: 22px;&quot;&gt;&lt;font face=&quot;Comic Sans MS&quot; style=&quot;font-size: 22px;&quot;&gt;&lt;b&gt;EXECUTE&lt;/b&gt;&lt;/font&gt;&lt;/span&gt;&lt;div style=&quot;font-size: 22px;&quot;&gt;&lt;font face=&quot;Comic Sans MS&quot; style=&quot;font-size: 22px;&quot;&gt;&lt;b style=&quot;&quot;&gt;CALLBACK&lt;/b&gt;&lt;/font&gt;&lt;/div&gt;" style="text;html=1;align=center;verticalAlign=middle;whiteSpace=wrap;rounded=0;" parent="1" vertex="1">
          <mxGeometry x="1250" y="930" width="100" height="60" as="geometry" />
        </mxCell>
      </root>
    </mxGraphModel>
  </diagram>
</mxfile>
